/vscmnt/brussel_pixiu_data/_data_brussel/112/vsc11236/PredSimResults/SUBJ04mtu3D/weighted-trackIG/worker_05.mot
version=1
nRows=10
nColumns=50
inDegrees=yes
endheader
                time	         pelvis_tilt	         pelvis_list	     pelvis_rotation	           pelvis_tx	           pelvis_ty	           pelvis_tz	       hip_flexion_r	     hip_adduction_r	      hip_rotation_r	        knee_angle_r	       ankle_angle_r	         mtp_angle_r	       hip_flexion_l	     hip_adduction_l	      hip_rotation_l	        knee_angle_l	       ankle_angle_l	         mtp_angle_l	    lumbar_extension	      lumbar_bending	     lumbar_rotation	 ercspn_r/activation	 intobl_r/activation	 extobl_r/activation	    abd_r/activation	    add_r/activation	hamstrings_r/activation	bifemsh_r/activation	glut_max_r/activation	iliopsoas_r/activation	rect_fem_r/activation	  vasti_r/activation	gastroc_r/activation	 soleus_r/activation	tib_ant_r/activation	 ercspn_l/activation	 intobl_l/activation	 extobl_l/activation	    abd_l/activation	    add_l/activation	hamstrings_l/activation	bifemsh_l/activation	glut_max_l/activation	iliopsoas_l/activation	rect_fem_l/activation	  vasti_l/activation	gastroc_l/activation	 soleus_l/activation	tib_ant_l/activation	
          2.10381086	         -5.83522077	          4.70032433	        -12.63264871	          1.80927734	          0.88340585	          0.02314810	         -7.63165623	         -3.96326335	         16.32185408	         -7.88133008	         12.65583151	         22.37328971	         24.99726963	         -0.00295705	         -5.68600750	          2.24357325	          5.46761133	          0.21543476	         -2.61789451	         -1.56463090	          1.49549398	          0.03410834	          0.01000009	          0.01000013	          0.09614590	          0.01000076	          0.02127149	          0.15472371	          0.07964536	          0.34514406	          0.01000080	          0.01000017	          0.32816308	          0.29155336	          0.01522199	          0.09359047	          0.15813055	          0.02113589	          0.01990784	          0.10103065	          0.03404510	          0.01001748	          0.01000013	          0.05826781	          0.01504570	          0.02070435	          0.01000018	          0.01000012	          0.26984063	
          2.11783627	         -5.96062828	          4.58189052	        -12.51870073	          1.82421693	          0.88139225	          0.02196324	         -7.91782028	         -3.84327228	         15.53058783	         -9.07453419	         12.52513400	         24.01939674	         24.70068469	          0.28467680	         -4.48930010	          1.57726599	          5.08901627	          0.22179980	         -2.31562096	         -1.86625499	          1.75697822	          0.06308226	          0.01000011	          0.01000021	          0.07792943	          0.02712835	          0.01849992	          0.12540898	          0.07003289	          0.31955739	          0.01000079	          0.01000018	          0.30811871	          0.28935337	          0.01233793	          0.07585848	          0.15128673	          0.01713136	          0.01613602	          0.14796111	          0.03049528	          0.01000194	          0.01396110	          0.04722799	          0.01231068	          0.01678333	          0.01547735	          0.01792529	          0.27035774	
          2.13186167	         -6.06774308	          4.45658127	        -12.33674293	          1.83957557	          0.87952007	          0.02068979	         -8.14774691	         -3.69455923	         14.67718835	        -10.46534895	         12.27860954	         25.73091809	         24.27130795	          0.56984919	         -3.31288814	          0.86070223	          4.68965954	          0.21348230	         -1.99241612	         -2.18267546	          2.00936516	          0.07790975	          0.01000007	          0.01000022	          0.06316436	          0.04871900	          0.01645583	          0.10164835	          0.05676460	          0.28496913	          0.01000089	          0.01000021	          0.28275320	          0.28050289	          0.01000031	          0.06493175	          0.16511425	          0.01388555	          0.01745954	          0.11992794	          0.03366901	          0.03529055	          0.02739269	          0.03827985	          0.01000040	          0.01360358	          0.01254498	          0.01452907	          0.30758879	
          2.14588708	         -6.15767759	          4.33078064	        -12.07578598	          1.85514166	          0.87800076	          0.01931013	         -8.25469577	         -3.51303581	         13.76961943	        -12.13397114	         11.85888959	         27.50217857	         23.71401227	          0.87260861	         -2.20834036	          0.37101077	          4.13635819	          0.20006070	         -1.67041915	         -2.52323383	          2.24954490	          0.10025325	          0.01000010	          0.01000028	          0.05119679	          0.04636265	          0.01704228	          0.08238956	          0.04600970	          0.24245234	          0.01000174	          0.01000051	          0.25195741	          0.26313892	          0.01000005	          0.06963360	          0.14446353	          0.01125475	          0.04463283	          0.09723450	          0.03446829	          0.02860508	          0.03978929	          0.03102709	          0.01000084	          0.01102762	          0.01016829	          0.01177639	          0.33570776	
          2.15991249	         -6.23060694	          4.20419841	        -11.73608665	          1.87074769	          0.87702399	          0.01783808	         -8.19827537	         -3.29565210	         12.80322298	        -14.11244138	         11.20096919	         29.30368688	         23.08099329	          1.19433470	         -1.18712565	         -0.01902429	          3.63479611	          0.18439861	         -1.36317208	         -2.88861697	          2.47426240	          0.11934279	          0.01000007	          0.01000021	          0.04149668	          0.04825769	          0.01882988	          0.06677977	          0.03729239	          0.21167254	          0.01000098	          0.01000028	          0.20421979	          0.23696550	          0.01000004	          0.06621208	          0.11709320	          0.01000014	          0.06586638	          0.08325400	          0.03848497	          0.02318619	          0.04548613	          0.02514849	          0.01000057	          0.02416371	          0.01000050	          0.01000035	          0.36057788	
          2.17393789	         -6.28650083	          4.07390784	        -11.32239760	          1.88628996	          0.87667512	          0.01629156	         -7.95992545	         -3.04266692	         11.76691534	        -16.40446589	         10.28346549	         31.04313005	         22.38702992	          1.52555285	         -0.24853206	         -0.34861491	          3.26917148	          0.16958308	         -1.07646636	         -3.27151298	          2.67889204	          0.13319469	          0.01000008	          0.01000025	          0.03363442	          0.05809984	          0.02472157	          0.05412774	          0.03022672	          0.19093598	          0.01000059	          0.01000021	          0.16552679	          0.19206845	          0.01000004	          0.05985429	          0.09490801	          0.01000017	          0.08935796	          0.07969357	          0.04268482	          0.01879408	          0.04102819	          0.02038369	          0.01000048	          0.03186333	          0.01000061	          0.01000043	          0.37149637	
          2.18796330	         -6.32571352	          3.93517286	        -10.84033845	          1.90165814	          0.87695347	          0.01469383	         -7.52474257	         -2.75482375	         10.64342015	        -19.01300690	          9.14289740	         32.54506605	         21.64234046	          1.85133802	          0.61368738	         -0.63102462	          3.06263965	          0.15753435	         -0.81862218	         -3.66355433	          2.86038765	          0.14319673	          0.01000010	          0.01000031	          0.02726180	          0.07262117	          0.03192461	          0.04387423	          0.02449975	          0.17072492	          0.01000029	          0.01000011	          0.13416486	          0.15567775	          0.01000006	          0.04967605	          0.07692613	          0.01000017	          0.10881127	          0.07016040	          0.04492219	          0.01523427	          0.03423929	          0.01652167	          0.01000038	          0.03740036	          0.01000074	          0.01000056	          0.36846545	
          2.20198870	         -6.34929991	          3.77705684	        -10.29559025	          1.91673701	          0.87782990	          0.01306870	         -6.88367961	         -2.43189568	          9.41120888	        -21.92541160	          7.84278209	         33.56600873	         20.85362662	          2.15184452	          1.40597369	         -0.86273539	          2.99644371	          0.15010648	         -0.60088661	         -4.05037314	          3.01768218	          0.14552935	          0.01000012	          0.01000036	          0.02209658	          0.08440676	          0.03703840	          0.04799057	          0.01985785	          0.15166237	          0.01000019	          0.01000006	          0.10874499	          0.12618189	          0.01000010	          0.04578283	          0.06235123	          0.01000018	          0.11811307	          0.05686776	          0.04671758	          0.01234942	          0.03104555	          0.01339138	          0.01000033	          0.03031691	          0.01000138	          0.01000156	          0.35605157	
          2.21601411	         -6.35777818	          3.58286466	         -9.69490444	          1.93146582	          0.87923064	          0.01143293	         -6.03872204	         -2.07692795	          8.06118839	        -25.12185901	          6.46632979	         33.85591491	         20.02914624	          2.40481262	          2.14146087	         -1.04531023	          3.01572756	          0.14808960	         -0.43033230	         -4.41114605	          3.15050184	          0.14316293	          0.01000013	          0.01000045	          0.01791000	          0.09480328	          0.03751959	          0.04774526	          0.01609545	          0.13482779	          0.01000017	          0.01000005	          0.08814136	          0.10227454	          0.01000007	          0.04461047	          0.05053782	          0.01000019	          0.11856490	          0.04609330	          0.04835241	          0.01001681	          0.02863013	          0.01085421	          0.01000029	          0.02457336	          0.01000111	          0.01000092	          0.34101729	
          2.23003951	         -6.35083972	          3.33753214	         -9.04343478	          1.94584728	          0.88104426	          0.00979596	         -5.00657278	         -1.69841242	          6.61503728	        -28.55278200	          4.97227691	         33.43572767	         19.17387922	          2.59159019	          2.83489701	         -1.18284646	          3.07569006	          0.14942908	         -0.30743294	         -4.72665435	          3.25730493	          0.13985503	          0.01000012	          0.01000047	          0.01451665	          0.10586745	          0.03588155	          0.04872663	          0.01304589	          0.12184324	          0.01000016	          0.01000004	          0.07144144	          0.08289685	          0.01000006	          0.03874608	          0.04096265	          0.01000019	          0.11259863	          0.03736017	          0.04962048	          0.01001180	          0.02689409	          0.01000015	          0.01000028	          0.01991785	          0.01000140	          0.01000117	          0.32635815	
